# Blender v2.74 (sub 0) OBJ File: ''
# www.blender.org
mtllib movedcube.mtl
o Cube
v 0.388766 -0.169012 -0.477919
v 0.436283 -0.265169 0.078761
v -0.244436 -0.253154 0.021955
v -0.270280 -0.164905 -0.452767
v 0.448643 0.458743 -0.429125
v 0.459381 0.394112 0.085549
v -0.319259 0.438533 0.106541
v -0.291834 0.453535 -0.407176
vn 0.995200 -0.092400 -0.032400
vn 0.020000 -0.119200 0.992700
vn -0.993200 -0.111500 0.033300
vn -0.037600 0.072200 -0.996700
vn -0.003200 -0.985400 -0.169900
vn 0.057800 0.997800 0.032200
vn 0.995300 -0.033900 -0.090800
vn -0.083300 -0.007300 0.996500
vn -0.998100 -0.030800 -0.054200
vn -0.030100 0.080300 -0.996300
vn -0.013100 -0.983200 -0.182100
vn -0.003300 0.992200 0.124700
usemtl Material
s off
f 1//1 5//1 6//1
f 6//2 7//2 3//2
f 4//3 3//3 7//3
f 1//4 4//4 8//4
f 1//5 2//5 3//5
f 8//6 7//6 6//6
f 2//7 1//7 6//7
f 2//8 6//8 3//8
f 8//9 4//9 7//9
f 5//10 1//10 8//10
f 4//11 1//11 3//11
f 5//12 8//12 6//12
